<svg width="229" height="43" viewBox="0 0 229 43" fill="none" xmlns="http://www.w3.org/2000/svg">
<path d="M9.49988 41.5L9.49986 1.5L1.5 1.5M9.49988 41.5H1.5M9.49988 41.5H17.5" stroke="white" stroke-width="3" stroke-miterlimit="1.43956" stroke-linecap="square"/>
<path d="M36.5 1.50002H44.5L49.05 15.5M65.5 41.5H57.5L49.05 15.5M49.05 15.5L40 15.5L31.5 41.5H23.5" stroke="#FFAE00" stroke-width="3" stroke-miterlimit="1.43956" stroke-linecap="square"/>
<path d="M79.4999 15.5L71.5 15.5M79.4999 15.5L79.4999 41.5H71.5M79.4999 15.5H91M95.5 41.5V28.5L91 15.5M91 15.5L105.5 15.5L114.5 41.5L122.5 41.5" stroke="white" stroke-width="3" stroke-miterlimit="1.43956" stroke-linecap="square"/>
<path d="M136.5 41.5H128.5M136.5 41.5L157.5 41.5L148.5 15.5H136.5M136.5 41.5L136.5 15.5M128.5 1.5L136.5 1.5L136.5 15.5" stroke="white" stroke-width="3" stroke-miterlimit="1.43956" stroke-linecap="square"/>
<path d="M184.5 41.5H192.5M184.5 41.5L163.5 41.5L172.5 15.5H184.5M184.5 41.5L184.5 15.5M192.5 1.5L184.5 1.5L184.5 15.5" stroke="white" stroke-width="3" stroke-miterlimit="1.43956" stroke-linecap="square"/>
<path d="M219.5 41.5H227.5M219.5 41.5L198.5 41.5L207.5 15.5L219.5 15.5M219.5 41.5L219.5 15.5M219.5 15.5L227.5 15.5" stroke="white" stroke-width="3" stroke-miterlimit="1.43956" stroke-linecap="square"/>
</svg>
